PathFileType	4	(X/Y/Z)	C:\Users\WrightLab\Desktop\Jo\P5V211.trc
DataRate	CameraRate	NumFrames	NumMarkers	Units	OrigDataRate	OrigDataStartFrame	OrigNumFrames
100.00	100.00	       10	19	mm	100.00	283	       754
Frame#	Time	Headset_Front			Headset_Back			Headset_Left			Headset_Right			Left_Shoulder			Right_Shoulder			Sternum			C7			Left Elbow			Right Elbow			Left Wrist			Right Wrist			Left ASIS			Right ASIS			S2			Left Knee			Right Knee			Left Ankle			Right Ankle			
		X1	Y1	Z1	X2	Y2	Z2	X3	Y3	Z3	X4	Y4	Z4	X5	Y5	Z5	X6	Y6	Z6	X7	Y7	Z7	X8	Y8	Z8	X9	Y9	Z9	X10	Y10	Z10	X11	Y11	Z11	X12	Y12	Z12	X13	Y13	Z13	X14	Y14	Z14	X15	Y15	Z15	X16	Y16	Z16	X17	Y17	Z17	X18	Y18	Z18	X19	Y19	Z19	

283	2.820										-320.51929	1573.04333	-787.39911	-204.72804	1296.99377	-878.39148							-249.69476	1499.49707	-1082.52698	60.33315	1184.37744	-1018.98999	-532.98566	1161.75818	-951.25751	35.08569	941.30188	-935.31458	-493.65515	1032.35754	-755.95447	-61.83434	906.77002	-893.79968	-357.79401	924.28125	-848.84607	-216.44124	950.38617	-1152.16260	-60.43998	472.90262	-855.66473	-380.41620	484.96707	-916.78064	-77.03630	234.03505	-1228.18298	-326.96329	77.68282	-981.60950	
284	2.830										-321.29053	1573.74585	-781.66840	-203.58463	1296.52075	-873.84869							-250.01410	1500.22754	-1076.48401	59.33117	1183.97009	-1013.58960	-534.30139	1163.06348	-943.61420	35.28486	942.03534	-929.29510	-494.77457	1033.29871	-747.30786	-60.95697	907.34814	-886.99707	-357.36151	924.24335	-844.04993	-216.35400	950.89014	-1146.65283	-58.45265	475.87509	-844.56476	-381.04861	485.53403	-914.53094	-77.13622	236.28940	-1210.92944	-326.91940	77.66568	-981.59863	
285	2.840										-322.01193	1574.78992	-776.41406	-202.70647	1297.37317	-867.47107							-250.25809	1500.85522	-1070.14319	59.88825	1184.73389	-1006.76404	-535.03357	1164.40344	-935.88843	36.14349	944.95221	-919.59967	-496.70074	1035.52563	-739.65594	-61.83225	907.75073	-881.01459	-357.76691	925.86621	-837.65759	-216.08759	951.56116	-1141.46277	-57.34177	479.96613	-834.48157	-380.50409	484.65866	-911.02838	-77.76541	237.22404	-1192.78845	-326.88150	77.65764	-981.59052	
286	2.850										-322.68878	1575.20374	-770.39270	-206.68835	1297.16052	-867.27991							-250.51854	1501.97107	-1064.45886	60.05122	1186.43152	-1001.98517	-536.29407	1165.78003	-927.44263	33.62829	944.82458	-917.07813	-497.20728	1037.87939	-731.44360	-63.74342	907.55182	-876.75061	-358.40506	926.10883	-833.29901	-215.41725	952.48425	-1136.15027	-56.18612	483.41147	-824.43646	-380.93002	484.13339	-907.84570	-77.78778	236.77441	-1174.61060	-326.78809	77.90919	-981.12250	
287	2.860										-323.28320	1575.69934	-764.68628	-206.12535	1297.72705	-859.33667							-250.75975	1502.34351	-1058.13611	56.62919	1184.64807	-994.48492	-537.34222	1167.20911	-918.99030	32.84116	945.81555	-908.28625	-499.34796	1039.12439	-722.04926	-61.39427	909.13971	-868.22388	-358.46457	926.61456	-829.04883	-214.93539	952.29211	-1130.48218	-55.32204	487.13391	-814.48877	-380.57993	483.46585	-904.58539	-77.58553	234.89607	-1156.24792	-326.65054	78.16962	-980.67828	
288	2.870										-323.81601	1576.64539	-759.23755	-206.71698	1297.21399	-853.99219							-250.96591	1502.88953	-1052.41040	58.85331	1187.02441	-989.51306	-537.84198	1168.11426	-910.99249	32.50842	947.06299	-903.23999	-498.69846	1039.30359	-713.09570	-63.40067	909.23120	-864.13177	-357.76962	927.38123	-824.90747	-214.03622	953.03265	-1125.08142	-55.88432	489.80371	-805.23438	-379.54672	482.82971	-901.42395	-77.68239	232.51245	-1137.25696	-326.62042	78.16869	-980.67291	
289	2.880										-324.25598	1577.16003	-753.25500	-206.14003	1298.23889	-847.43152							-251.06963	1503.67542	-1046.50500	59.02732	1187.88477	-983.74731	-538.17535	1169.59448	-903.21899	32.85023	947.69788	-895.79694	-502.51654	1042.45813	-704.20654	-64.56963	910.18610	-857.16827	-356.17917	927.48798	-820.15369	-213.24132	953.82965	-1120.11169	-55.11009	494.04767	-795.11890	-379.59937	482.27060	-899.09747	-76.59081	229.63812	-1116.98572	-326.57205	78.16470	-980.66376	
290	2.890	-415.70071	1435.26355	-877.78485							-324.68027	1577.78369	-747.73254	-206.18536	1299.64734	-841.82263							-251.18547	1504.16345	-1039.91211	58.72673	1187.04578	-977.25458	-538.51880	1170.14966	-894.90881	32.86586	948.27087	-889.95837	-501.35873	1042.72070	-695.96826	-65.32333	910.85760	-851.44861	-354.53793	927.46393	-816.46289	-212.48042	954.16840	-1114.78271	-56.53334	496.50458	-785.67200	-379.43039	482.39053	-896.36322	-74.83263	224.98170	-1096.80652	-326.55658	78.18091	-980.66418	
291	2.900	-415.69257	1436.18286	-871.74713							-325.04672	1578.43701	-741.70593	-208.53362	1298.99878	-838.59241							-251.31204	1504.83813	-1033.92407	58.81521	1187.99182	-971.98779	-539.56561	1171.86829	-887.27502	31.44008	948.94250	-883.68878	-503.64880	1044.55798	-686.83331	-66.39291	911.12592	-845.85419	-353.19925	927.76025	-812.36658				-58.78701	499.21799	-776.70313	-379.57855	482.23181	-892.74408	-74.31284	218.61778	-1077.39465	-326.15082	78.72427	-980.34778	
292	2.910	-415.69080	1437.00012	-865.28204							-325.37164	1579.01904	-735.70074	-208.35858	1298.90088	-831.27460							-251.43777	1505.44995	-1027.81934	59.25976	1189.20447	-965.80383	-540.38232	1172.37952	-878.58026	31.64240	949.48737	-877.47107	-505.77362	1046.15149	-677.84619	-68.13824	910.83466	-839.23547	-352.10178	926.83032	-808.20160	-211.03700	954.79858	-1104.03784	-61.11488	500.96237	-767.77118	-379.14072	482.52646	-889.83368	-73.95938	211.50882	-1055.93469	-326.09415	78.70017	-980.33331	
